<?xml version="1.0" encoding="UTF-8" standalone="no"?>
<svg xmlns="http://www.w3.org/2000/svg"
     xmlns:xlink="http://www.w3.org/1999/xlink"
     width="256pt" height="256pt" viewBox="0 0 256 256">
<title>/Users/ckemp/u/mygithub/parity/output/figures/helix.svg</title>
<desc>
Creator: GL2PS 1.4.2, (C) 1999-2020 C. Geuzaine
For: Generated by rgl
CreationDate: Tue Dec  3 10:38:38 2024
</desc>
<defs>
</defs>
<g>
<circle fill="#90ee90" cx="127.991" cy="61.0418" r="2"/>
<circle fill="#90ee90" cx="119.519" cy="62.6151" r="2"/>
<circle fill="#90ee90" cx="111.493" cy="65.9306" r="2"/>
<circle fill="#90ee90" cx="104.414" cy="70.8014" r="2"/>
<circle fill="#90ee90" cx="98.6882" cy="76.9318" r="2"/>
<circle fill="#90ee90" cx="94.5985" cy="83.9572" r="2"/>
<circle fill="#90ee90" cx="92.2959" cy="91.4864" r="2"/>
<circle fill="#90ee90" cx="91.8066" cy="99.1387" r="2"/>
<circle fill="#90ee90" cx="93.0537" cy="106.571" r="2"/>
<circle fill="#90ee90" cx="95.8841" cy="113.493" r="2"/>
<circle fill="#90ee90" cx="100.094" cy="119.673" r="2"/>
<circle fill="#90ee90" cx="105.45" cy="124.933" r="2"/>
<circle fill="#90ee90" cx="111.707" cy="129.147" r="2"/>
<circle fill="#90ee90" cx="118.611" cy="132.227" r="2"/>
<circle fill="#90ee90" cx="125.912" cy="134.121" r="2"/>
<circle fill="#add8e6" cx="133.356" cy="134.804" r="2"/>
<circle fill="#add8e6" cx="140.691" cy="134.278" r="2"/>
<circle fill="#add8e6" cx="147.656" cy="132.568" r="2"/>
<circle fill="#add8e6" cx="153.984" cy="129.73" r="2"/>
<circle fill="#add8e6" cx="159.4" cy="125.852" r="2"/>
<circle fill="#add8e6" cx="163.624" cy="121.065" r="2"/>
<circle fill="#add8e6" cx="166.383" cy="115.554" r="2"/>
<circle fill="#add8e6" cx="167.423" cy="109.56" r="2"/>
<circle fill="#add8e6" cx="166.541" cy="103.392" r="2"/>
<circle fill="#add8e6" cx="163.61" cy="97.4194" r="2"/>
<circle fill="#add8e6" cx="158.626" cy="92.056" r="2"/>
<circle fill="#add8e6" cx="151.732" cy="87.7321" r="2"/>
<circle fill="#add8e6" cx="143.241" cy="84.8497" r="2"/>
<circle fill="#add8e6" cx="133.634" cy="83.7307" r="2"/>
<circle fill="#add8e6" cx="123.517" cy="84.5682" r="2"/>
<circle fill="#add8e6" cx="113.566" cy="87.3938" r="2"/>
<circle fill="#add8e6" cx="104.441" cy="92.0702" r="2"/>
<circle fill="#add8e6" cx="96.7157" cy="98.313" r="2"/>
<circle fill="#add8e6" cx="90.8175" cy="105.734" r="2"/>
<circle fill="#add8e6" cx="87.0029" cy="113.894" r="2"/>
<circle fill="#add8e6" cx="85.3603" cy="122.356" r="2"/>
<circle fill="#add8e6" cx="85.8352" cy="130.719" r="2"/>
<circle fill="#add8e6" cx="88.2665" cy="138.646" r="2"/>
<circle fill="#add8e6" cx="92.4235" cy="145.869" r="2"/>
<circle fill="#add8e6" cx="98.0371" cy="152.188" r="2"/>
<circle fill="#add8e6" cx="104.823" cy="157.461" r="2"/>
<circle fill="#add8e6" cx="112.495" cy="161.594" r="2"/>
<circle fill="#add8e6" cx="120.773" cy="164.529" r="2"/>
<circle fill="#bebebe" cx="129.38" cy="166.237" r="2"/>
<circle fill="#bebebe" cx="138.042" cy="166.712" r="2"/>
<circle fill="#bebebe" cx="146.482" cy="165.965" r="2"/>
<circle fill="#bebebe" cx="154.41" cy="164.033" r="2"/>
<circle fill="#bebebe" cx="161.521" cy="160.973" r="2"/>
<circle fill="#bebebe" cx="167.493" cy="156.883" r="2"/>
<circle fill="#bebebe" cx="171.989" cy="151.903" r="2"/>
<circle fill="#bebebe" cx="174.668" cy="146.232" r="2"/>
<circle fill="#bebebe" cx="175.214" cy="140.14" r="2"/>
<circle fill="#bebebe" cx="173.365" cy="133.975" r="2"/>
<circle fill="#bebebe" cx="168.971" cy="128.158" r="2"/>
<circle fill="#bebebe" cx="162.043" cy="123.162" r="2"/>
<circle fill="#bebebe" cx="152.808" cy="119.469" r="2"/>
<circle fill="#bebebe" cx="141.729" cy="117.515" r="2"/>
<circle fill="#bebebe" cx="129.492" cy="117.621" r="2"/>
<circle fill="#bebebe" cx="116.942" cy="119.931" r="2"/>
<circle fill="#bebebe" cx="104.975" cy="124.385" r="2"/>
<circle fill="#bebebe" cx="94.4211" cy="130.728" r="2"/>
<circle fill="#bebebe" cx="85.9395" cy="138.552" r="2"/>
<circle fill="#bebebe" cx="79.9608" cy="147.366" r="2"/>
<circle fill="#bebebe" cx="76.6751" cy="156.666" r="2"/>
<circle fill="#bebebe" cx="76.0611" cy="165.986" r="2"/>
<circle fill="#bebebe" cx="77.9393" cy="174.939" r="2"/>
<circle fill="#bebebe" cx="82.0291" cy="183.224" r="2"/>
<circle fill="#bebebe" cx="87.9981" cy="190.624" r="2"/>
<circle fill="#bebebe" cx="95.4985" cy="196.995" r="2"/>
<circle fill="#bebebe" cx="104.189" cy="202.251" r="2"/>
<circle fill="#bebebe" cx="113.744" cy="206.343" r="2"/>
<circle fill="#bebebe" cx="123.857" cy="209.253" r="2"/>
<text fill="#000000" x="185.123" y="165.543" font-size="12" text-anchor="start" dy="0" font-family="Helvetica"></text>
<text fill="#000000" x="55.3953" y="227.911" font-size="12" text-anchor="start" dy="0" font-family="Helvetica"></text>
</g>
</svg>
